<mxfile host="Electron" agent="Mozilla/5.0 (Windows NT 10.0; Win64; x64) AppleWebKit/537.36 (KHTML, like Gecko) draw.io/24.7.8 Chrome/128.0.6613.36 Electron/32.0.1 Safari/537.36" version="24.7.8">
  <diagram name="Page-1" id="hTxXZvatgoyb6T14wd80">
    <mxGraphModel dx="757" dy="681" grid="1" gridSize="10" guides="1" tooltips="1" connect="1" arrows="1" fold="1" page="1" pageScale="1" pageWidth="850" pageHeight="1100" math="0" shadow="0">
      <root>
        <mxCell id="0" />
        <mxCell id="1" parent="0" />
        <mxCell id="EDrpg-4Xwo-rZ-2k14l9-1" value="&lt;font style=&quot;font-size: 18px;&quot;&gt;Host 1&lt;/font&gt;" style="rounded=0;whiteSpace=wrap;html=1;verticalAlign=top;" vertex="1" parent="1">
          <mxGeometry x="180" y="240" width="120" height="80" as="geometry" />
        </mxCell>
        <mxCell id="EDrpg-4Xwo-rZ-2k14l9-2" value="&lt;font style=&quot;font-size: 18px;&quot;&gt;Host 2&lt;/font&gt;" style="rounded=0;whiteSpace=wrap;html=1;verticalAlign=top;" vertex="1" parent="1">
          <mxGeometry x="355" y="240" width="120" height="80" as="geometry" />
        </mxCell>
        <mxCell id="EDrpg-4Xwo-rZ-2k14l9-3" value="&lt;font style=&quot;font-size: 18px;&quot;&gt;Host 3&lt;/font&gt;" style="rounded=0;whiteSpace=wrap;html=1;verticalAlign=top;" vertex="1" parent="1">
          <mxGeometry x="530" y="240" width="120" height="80" as="geometry" />
        </mxCell>
        <mxCell id="EDrpg-4Xwo-rZ-2k14l9-6" value="Network Adapter" style="text;html=1;align=center;verticalAlign=middle;whiteSpace=wrap;rounded=0;" vertex="1" parent="1">
          <mxGeometry x="190" y="265" width="110" height="30" as="geometry" />
        </mxCell>
        <mxCell id="EDrpg-4Xwo-rZ-2k14l9-7" value="10.0.0.3" style="text;html=1;align=center;verticalAlign=middle;whiteSpace=wrap;rounded=0;" vertex="1" parent="1">
          <mxGeometry x="210" y="295" width="60" height="30" as="geometry" />
        </mxCell>
        <mxCell id="EDrpg-4Xwo-rZ-2k14l9-8" value="10.0.0.2" style="text;html=1;align=center;verticalAlign=middle;whiteSpace=wrap;rounded=0;" vertex="1" parent="1">
          <mxGeometry x="385" y="295" width="60" height="30" as="geometry" />
        </mxCell>
        <mxCell id="EDrpg-4Xwo-rZ-2k14l9-9" value="10.0.0.1" style="text;html=1;align=center;verticalAlign=middle;whiteSpace=wrap;rounded=0;" vertex="1" parent="1">
          <mxGeometry x="560" y="295" width="60" height="30" as="geometry" />
        </mxCell>
        <mxCell id="EDrpg-4Xwo-rZ-2k14l9-10" value="VM1&lt;div&gt;10.0.0.4&lt;/div&gt;" style="rounded=0;whiteSpace=wrap;html=1;" vertex="1" parent="1">
          <mxGeometry x="40" y="240" width="70" height="40" as="geometry" />
        </mxCell>
        <mxCell id="EDrpg-4Xwo-rZ-2k14l9-11" value="VM2&lt;div&gt;10.0.0.5&lt;/div&gt;" style="rounded=0;whiteSpace=wrap;html=1;" vertex="1" parent="1">
          <mxGeometry x="40" y="295" width="70" height="40" as="geometry" />
        </mxCell>
        <mxCell id="EDrpg-4Xwo-rZ-2k14l9-13" value="" style="rounded=1;whiteSpace=wrap;html=1;" vertex="1" parent="1">
          <mxGeometry x="224" y="290" width="30" height="10" as="geometry" />
        </mxCell>
        <mxCell id="EDrpg-4Xwo-rZ-2k14l9-14" value="" style="rounded=1;whiteSpace=wrap;html=1;" vertex="1" parent="1">
          <mxGeometry x="130" y="335" width="35" height="20" as="geometry" />
        </mxCell>
        <mxCell id="EDrpg-4Xwo-rZ-2k14l9-15" value="Network Switch" style="rounded=1;whiteSpace=wrap;html=1;" vertex="1" parent="1">
          <mxGeometry x="360" y="350" width="110" height="35" as="geometry" />
        </mxCell>
        <mxCell id="EDrpg-4Xwo-rZ-2k14l9-17" value="" style="edgeStyle=segmentEdgeStyle;endArrow=none;html=1;curved=0;rounded=0;endSize=8;startSize=8;entryX=0.5;entryY=0;entryDx=0;entryDy=0;endFill=0;exitX=1;exitY=0.5;exitDx=0;exitDy=0;" edge="1" parent="1" source="EDrpg-4Xwo-rZ-2k14l9-13" target="EDrpg-4Xwo-rZ-2k14l9-15">
          <mxGeometry width="50" height="50" relative="1" as="geometry">
            <mxPoint x="240" y="350" as="sourcePoint" />
            <mxPoint x="290" y="360" as="targetPoint" />
            <Array as="points">
              <mxPoint x="270" y="295" />
              <mxPoint x="270" y="330" />
              <mxPoint x="415" y="330" />
            </Array>
          </mxGeometry>
        </mxCell>
        <mxCell id="EDrpg-4Xwo-rZ-2k14l9-18" value="" style="endArrow=none;html=1;rounded=0;endFill=0;" edge="1" parent="1">
          <mxGeometry width="50" height="50" relative="1" as="geometry">
            <mxPoint x="415" y="320" as="sourcePoint" />
            <mxPoint x="415" y="351" as="targetPoint" />
          </mxGeometry>
        </mxCell>
        <mxCell id="EDrpg-4Xwo-rZ-2k14l9-20" value="" style="edgeStyle=segmentEdgeStyle;endArrow=none;html=1;curved=0;rounded=0;endSize=8;startSize=8;endFill=0;" edge="1" parent="1">
          <mxGeometry width="50" height="50" relative="1" as="geometry">
            <mxPoint x="590" y="320" as="sourcePoint" />
            <mxPoint x="416" y="350" as="targetPoint" />
            <Array as="points">
              <mxPoint x="590" y="330" />
              <mxPoint x="415" y="330" />
              <mxPoint x="415" y="350" />
            </Array>
          </mxGeometry>
        </mxCell>
        <mxCell id="EDrpg-4Xwo-rZ-2k14l9-21" value="" style="edgeStyle=segmentEdgeStyle;endArrow=none;html=1;curved=0;rounded=0;endSize=8;startSize=8;entryX=1;entryY=0.5;entryDx=0;entryDy=0;endFill=0;exitX=0;exitY=0.25;exitDx=0;exitDy=0;" edge="1" parent="1" source="EDrpg-4Xwo-rZ-2k14l9-13" target="EDrpg-4Xwo-rZ-2k14l9-14">
          <mxGeometry width="50" height="50" relative="1" as="geometry">
            <mxPoint x="219" y="296" as="sourcePoint" />
            <mxPoint x="425" y="360" as="targetPoint" />
            <Array as="points">
              <mxPoint x="224" y="296" />
              <mxPoint x="200" y="296" />
              <mxPoint x="200" y="345" />
            </Array>
          </mxGeometry>
        </mxCell>
        <mxCell id="EDrpg-4Xwo-rZ-2k14l9-22" value="" style="edgeStyle=elbowEdgeStyle;elbow=vertical;endArrow=none;html=1;curved=0;rounded=0;endSize=8;startSize=8;entryX=1.009;entryY=0.405;entryDx=0;entryDy=0;entryPerimeter=0;endFill=0;" edge="1" parent="1">
          <mxGeometry width="50" height="50" relative="1" as="geometry">
            <mxPoint x="149" y="334" as="sourcePoint" />
            <mxPoint x="110" y="259.20000000000005" as="targetPoint" />
            <Array as="points">
              <mxPoint x="129.37" y="259" />
            </Array>
          </mxGeometry>
        </mxCell>
        <mxCell id="EDrpg-4Xwo-rZ-2k14l9-23" value="" style="edgeStyle=elbowEdgeStyle;elbow=vertical;endArrow=none;html=1;curved=0;rounded=0;endSize=8;startSize=8;entryX=1.009;entryY=0.405;entryDx=0;entryDy=0;entryPerimeter=0;endFill=0;" edge="1" parent="1">
          <mxGeometry width="50" height="50" relative="1" as="geometry">
            <mxPoint x="149" y="335" as="sourcePoint" />
            <mxPoint x="110" y="312" as="targetPoint" />
            <Array as="points">
              <mxPoint x="129" y="312" />
            </Array>
          </mxGeometry>
        </mxCell>
        <mxCell id="EDrpg-4Xwo-rZ-2k14l9-24" value="Virtual Switch&lt;div&gt;(vmnet0)&lt;/div&gt;" style="text;html=1;align=center;verticalAlign=middle;whiteSpace=wrap;rounded=0;" vertex="1" parent="1">
          <mxGeometry x="101" y="355" width="93" height="30" as="geometry" />
        </mxCell>
      </root>
    </mxGraphModel>
  </diagram>
</mxfile>
